<svg id="Desktop_Foster_SVG_Logo" data-name="Desktop Foster SVG Logo" xmlns="http://www.w3.org/2000/svg" width="176.396" height="40.024" viewBox="0 0 176.396 40.024">
  <path id="Path_68807" data-name="Path 68807" d="M4.761,16.77H0v25.9H4.761v-9.85H18.053V28.351H4.761Z" transform="translate(0 -14.719)" fill="#fff"/>
  <path id="Path_68808" data-name="Path 68808" d="M56.91,21.535H70.79V16.77H58.532Z" transform="translate(-49.953 -14.719)" fill="#fff"/>
  <path id="Path_68809" data-name="Path 68809" d="M525.617,78.716c-3.278-.934-6.31-1.643-7.4-3.066l-4.758,1.367c.966,2.54,3.355,3.943,6.326,4.809,3.134.909,9.488,2.344,9.488,4.805,0,2.132-2.871,3.254-5.577,3.254a17.764,17.764,0,0,1-8.453-2.5L513,91.316a21.812,21.812,0,0,0,10.7,3.041c6.376,0,10.361-3.04,10.361-7.73C534.051,82,529.536,79.83,525.617,78.716Z" transform="translate(-450.293 -66.403)" fill="#fff"/>
  <path id="Path_68810" data-name="Path 68810" d="M527.28,10.976a18.169,18.169,0,0,1,8.146,2.212l1.947-3.937A21.332,21.332,0,0,0,527.28,6.64c-5.472,0-8.3,2.237-9.421,4.574l4.7,1.345C523.484,11.514,525.507,10.976,527.28,10.976Z" transform="translate(-454.559 -5.829)" fill="#fff"/>
  <path id="Path_68811" data-name="Path 68811" d="M826.86,89.836h4.76V70.5l-4.76,1.621Z" transform="translate(-725.789 -61.883)" fill="#fff"/>
  <rect id="Rectangle_1843" data-name="Rectangle 1843" width="22.891" height="4.475" transform="translate(92.005 2.05)" fill="#fff"/>
  <path id="Path_68812" data-name="Path 68812" d="M1065.14,21.245h13.78V16.77h-12.257Z" transform="translate(-934.942 -14.719)" fill="#fff"/>
  <path id="Path_68813" data-name="Path 68813" d="M1012.181,31.959h13.292V27.484h-13.292V16.77h-4.761v25.9h20.835V38.2h-16.074Z" transform="translate(-884.278 -14.719)" fill="#fff"/>
  <path id="Path_68814" data-name="Path 68814" d="M1262.9,33.8a8.948,8.948,0,0,0-3.929-17.03h-5.048l-1.572,4.62h6.479a4.343,4.343,0,1,1,0,8.684h-8.7V16.77h-4.757v25.9h4.757V34.693h7.815l5.972,7.981h5.623Z" transform="translate(-1093.151 -14.719)" fill="#fff"/>
  <path id="Path_68815" data-name="Path 68815" d="M474.071,267.315l-2.423,3.231h-.276L469,267.3v5.409h-1.4V265.27h1.615l2.322,3.2,2.322-3.2h1.612v7.438h-1.4Z" transform="translate(-410.443 -232.844)" fill="#fff"/>
  <path id="Path_68816" data-name="Path 68816" d="M575.568,271.19h-3.892l-.631,1.4H569.52l3.336-7.438h1.53l3.336,7.438h-1.529Zm-1.947-4.469-1.381,3.167H575Z" transform="translate(-499.905 -232.739)" fill="#fff"/>
  <path id="Path_68817" data-name="Path 68817" d="M681.419,272.544H679.75l-2.167-2.481h-1.345v2.481H674.83V265.1c1.181,0,2.359.01,3.539.01a2.466,2.466,0,0,1,2.678,2.467,2.207,2.207,0,0,1-1.881,2.337l2.253,2.539Zm-5.185-6.13v2.38h2.135a1.193,1.193,0,1,0,0-2.38Z" transform="translate(-592.342 -232.696)" fill="#fff"/>
  <path id="Path_68818" data-name="Path 68818" d="M772.391,265.223l-3.3,3.559,3.58,3.751v.081h-1.736l-3.113-3.293v3.293h-1.4V265.18h1.4v3.146l2.825-3.146h1.743Z" transform="translate(-672.737 -232.766)" fill="#fff"/>
  <path id="Path_68819" data-name="Path 68819" d="M861.748,272.614H856.18V265.18h5.568v1.36h-4.175v1.711H861.6v1.307h-4.026v1.68h4.175Z" transform="translate(-751.525 -232.766)" fill="#fff"/>
  <path id="Path_68820" data-name="Path 68820" d="M945.949,266.456H943.59V265.18h6.12v1.276h-2.359v6.158h-1.4Z" transform="translate(-828.25 -232.766)" fill="#fff"/>
  <path id="Path_68821" data-name="Path 68821" d="M1037.117,270.36h-2.1v2.184h-1.4V265.11c1.168,0,2.337-.01,3.507-.01A2.632,2.632,0,1,1,1037.117,270.36Zm-2.1-1.286h2.1a1.318,1.318,0,1,0,0-2.635h-2.1Z" transform="translate(-907.267 -232.696)" fill="#fff"/>
  <path id="Path_68822" data-name="Path 68822" d="M1126.772,265.18v6.142h3.826v1.292h-5.228V265.18Z" transform="translate(-987.811 -232.766)" fill="#fff"/>
  <path id="Path_68823" data-name="Path 68823" d="M1209.041,271.19h-3.888l-.638,1.4H1203l3.337-7.438h1.529l3.337,7.438h-1.531Zm-1.943-4.474-1.381,3.167h2.761Z" transform="translate(-1055.951 -232.739)" fill="#fff"/>
  <path id="Path_68824" data-name="Path 68824" d="M1309.648,270.647a3.92,3.92,0,0,1-2.826,1.106,3.657,3.657,0,0,1-3.942-3.837,3.746,3.746,0,0,1,3.942-3.916,3.842,3.842,0,0,1,2.732,1.137l-.935.9a2.558,2.558,0,0,0-1.8-.7,2.45,2.45,0,0,0-2.567,2.582,2.376,2.376,0,0,0,2.567,2.518,2.737,2.737,0,0,0,1.87-.754Z" transform="translate(-1143.622 -231.729)" fill="#fff"/>
  <path id="Path_68825" data-name="Path 68825" d="M1403.078,272.614h-5.568V265.18h5.568v1.36H1398.9v1.711h4.027v1.307H1398.9v1.68h4.176Z" transform="translate(-1226.685 -232.766)" fill="#fff"/>
  <path id="Path_68826" data-name="Path 68826" d="M216.776,111.277a1.725,1.725,0,0,1,.341-.9c-1.908-2.484-7.555-8.567-9.842-16.315C207.274,94.06,202.487,101.214,216.776,111.277Z" transform="translate(-181.26 -82.562)" fill="#a21f23"/>
  <path id="Path_68827" data-name="Path 68827" d="M232,48.433c-7.9-17.439-5.1-23.613-5.1-23.613-1.661.138-5.745,2.863-5.481,6.607.446,6.426,7.13,15.1,9.242,17.7A4.541,4.541,0,0,1,232,48.433Z" transform="translate(-194.336 -21.786)" fill="#deefd0"/>
  <path id="Path_68828" data-name="Path 68828" d="M279.569,26.2c.17,0,.339,0,.507.012.394-5.721,1.123-19.9.733-23.821-.416-4.156-6.752-2.127-7.72.276-2.737,6.8,2.689,20.2,4.253,23.787A9.6,9.6,0,0,1,279.569,26.2Z" transform="translate(-239.039 0.005)" fill="#378287"/>
  <path id="Path_68829" data-name="Path 68829" d="M341.13,32.516a8.555,8.555,0,0,1,1.386.273c3.259-6.53,5.932-15.09,5.424-20.828-.446-5.03-5.576-4.847-5.576-4.847C343.091,14.449,341.591,28.514,341.13,32.516Z" transform="translate(-299.43 -6.243)" fill="#865554"/>
  <path id="Path_68830" data-name="Path 68830" d="M364.621,40.35c.815,8.236-4.262,18.761-5.891,21.886a3.7,3.7,0,0,1,1.1.708c3.2-4.546,7.465-9.591,8.589-15.647C369.345,42.283,364.621,40.35,364.621,40.35Z" transform="translate(-314.879 -35.417)" fill="#378287"/>
  <path id="Path_68831" data-name="Path 68831" d="M379.983,94.06c-.46,5.98-6.673,13.626-9.193,16.5a1.672,1.672,0,0,1,.174.439C386.354,101.661,379.983,94.06,379.983,94.06Z" transform="translate(-325.465 -82.562)" fill="#deefd0"/>
  <path id="Path_68832" data-name="Path 68832" d="M300.66,220.27c-2.375,0-4.3.856-4.3,1.919a4.827,4.827,0,0,0,.331,1.885,3.9,3.9,0,0,0,.253.56,1.422,1.422,0,0,1,.225-.295,2.719,2.719,0,0,1,.868-.548,6.936,6.936,0,0,1,2.624-.463,7.594,7.594,0,0,1,2.063.268,3.336,3.336,0,0,1,1.43.743,1.458,1.458,0,0,1,.229.3,4.011,4.011,0,0,0,.252-.56,4.838,4.838,0,0,0,.332-1.885C304.962,221.129,303.037,220.27,300.66,220.27Z" transform="translate(-260.129 -193.345)" fill="#a21f23"/>
  <path id="Path_68833" data-name="Path 68833" d="M308.11,250.07c-1.823,0-3.3.438-3.3.978s1.478.978,3.3.978,3.3-.438,3.3-.978S309.933,250.07,308.11,250.07Z" transform="translate(-267.549 -219.502)" fill="#378287"/>
  <path id="Path_68834" data-name="Path 68834" d="M314.416,271.442a21.012,21.012,0,0,0-2.689-.755c-.284-.031-.747.037-.747.592s.465,1.881,3.014,1.821c1.088-.024,1.7-.275,1.847-.611S315.737,271.993,314.416,271.442Z" transform="translate(-272.965 -237.593)" fill="#865554"/>
  <path id="Path_68835" data-name="Path 68835" d="M325.229,269.379l2.413.79s.583.174.733-.2.171-.794-.455-.835S323.742,268.891,325.229,269.379Z" transform="translate(-285.156 -236.167)" fill="#865554"/>
</svg>
