<svg xmlns="http://www.w3.org/2000/svg" xmlns:xlink="http://www.w3.org/1999/xlink" width="744.149" height="910.693" viewBox="0 0 744.149 910.693">
  <defs>
    <linearGradient id="linear-gradient" x1="0.5" y1="0.686" x2="0.5" y2="1" gradientUnits="objectBoundingBox">
      <stop offset="0" stop-color="#121212"/>
      <stop offset="1" stop-color="#5e2028"/>
    </linearGradient>
    <filter id="mint-card-bg" x="0" y="0" width="744.149" height="910.693" filterUnits="userSpaceOnUse">
      <feOffset dy="3" input="SourceAlpha"/>
      <feGaussianBlur stdDeviation="3" result="blur"/>
      <feFlood flood-color="#5ac3ba"/>
      <feComposite operator="in" in2="blur"/>
      <feComposite in="SourceGraphic"/>
    </filter>
  </defs>
  <g transform="matrix(1, 0, 0, 1, 0, 0)" filter="url(#mint-card-bg)">
    <g id="mint-card-bg-2" data-name="mint-card-bg" transform="translate(9 6)" fill="url(#linear-gradient)">
      <path d="M701.1,892.693H25.044A25.022,25.022,0,0,1,0,867.65V685.018a22.478,22.478,0,1,0,0-40.63V25.045A25.024,25.024,0,0,1,25.044,0H60a22.272,22.272,0,0,0-2.164,9.633,22.491,22.491,0,0,0,44.983,0A22.276,22.276,0,0,0,100.654,0h30.032a22.272,22.272,0,0,0-2.164,9.633,22.491,22.491,0,0,0,44.983,0A22.278,22.278,0,0,0,171.341,0h30.032a22.271,22.271,0,0,0-2.165,9.633,22.492,22.492,0,0,0,44.983,0A22.27,22.27,0,0,0,242.028,0h30.033A22.273,22.273,0,0,0,269.9,9.633a22.491,22.491,0,0,0,44.982,0A22.274,22.274,0,0,0,312.715,0h30.033a22.273,22.273,0,0,0-2.164,9.633,22.491,22.491,0,0,0,44.983,0A22.262,22.262,0,0,0,383.4,0h30.033a22.271,22.271,0,0,0-2.165,9.633,22.491,22.491,0,0,0,44.983,0A22.262,22.262,0,0,0,454.089,0h30.033a22.263,22.263,0,0,0-2.165,9.633,22.492,22.492,0,0,0,44.983,0A22.266,22.266,0,0,0,524.776,0h30.033a22.27,22.27,0,0,0-2.165,9.633,22.491,22.491,0,0,0,44.983,0A22.271,22.271,0,0,0,595.463,0H625.5a22.272,22.272,0,0,0-2.165,9.633,22.491,22.491,0,0,0,44.982,0A22.271,22.271,0,0,0,666.15,0H701.1a25.024,25.024,0,0,1,25.044,25.045V644.389a22.478,22.478,0,1,0,0,40.63V867.65A25.02,25.02,0,0,1,701.1,892.693Z" stroke="none"/>
      <path d="M 701.1045532226562 891.6929321289062 C 704.3519897460938 891.6929321289062 707.5009765625 891.0576171875 710.4638671875 889.8047485351562 C 713.3270874023438 888.5930786132812 715.8984985351562 886.8590698242188 718.1069946289062 884.6506958007812 C 720.3146362304688 882.44384765625 722.0482788085938 879.872802734375 723.2596435546875 877.0087280273438 C 724.5133056640625 874.046142578125 725.1488647460938 870.8972778320312 725.1488647460938 867.6495971679688 L 725.1489868164062 686.5436401367188 C 722.405517578125 687.6312255859375 719.5064697265625 688.1815795898438 716.5098876953125 688.1815795898438 C 703.556884765625 688.1815795898438 693.0188598632812 677.6495971679688 693.0188598632812 664.7040405273438 C 693.0188598632812 651.7579345703125 703.556884765625 641.2255249023438 716.5098876953125 641.2255249023438 C 719.5068359375 641.2255249023438 722.4057006835938 641.7757568359375 725.1488647460938 642.8634643554688 L 725.1488647460938 25.04527473449707 C 725.1488647460938 21.79660797119141 724.5133056640625 18.64771842956543 723.259521484375 15.68571853637695 C 722.0496215820312 12.82382965087891 720.3161010742188 10.25249671936035 718.1068725585938 8.043051719665527 C 715.8989868164062 5.835163116455078 713.3275146484375 4.101163387298584 710.4640502929688 2.889385461807251 C 707.4993286132812 1.635718822479248 704.3502807617188 1.000052094459534 701.1045532226562 1.000052094459534 L 667.6759643554688 1.000052094459534 C 668.7635498046875 3.741578102111816 669.31396484375 6.638535976409912 669.31396484375 9.632719039916992 C 669.31396484375 22.57927513122559 658.7759399414062 33.11205291748047 645.822998046875 33.11205291748047 C 632.8699951171875 33.11205291748047 622.3319702148438 22.57927513122559 622.3319702148438 9.632719039916992 C 622.3319702148438 6.639644622802734 622.8826293945312 3.742656707763672 623.9708862304688 1.000052094459534 L 596.9890747070312 1.000052094459534 C 598.07666015625 3.741578102111816 598.6270751953125 6.638535976409912 598.6270751953125 9.632719039916992 C 598.6270751953125 22.57927513122559 588.0890502929688 33.11205291748047 575.1361083984375 33.11205291748047 C 562.1824951171875 33.11205291748047 551.6441040039062 22.57927513122559 551.6441040039062 9.632719039916992 C 551.6441040039062 6.639360904693604 552.1946411132812 3.742481708526611 553.2828979492188 1.000052094459534 L 526.3014526367188 1.000052094459534 C 527.3894653320312 3.741710662841797 527.9400634765625 6.638724803924561 527.9400634765625 9.632719039916992 C 527.9400634765625 22.57927513122559 517.4021606445312 33.11205291748047 504.4493103027344 33.11205291748047 C 491.4956359863281 33.11205291748047 480.9570922851562 22.57927513122559 480.9570922851562 9.632719039916992 C 480.9570922851562 6.638819694519043 481.5077514648438 3.741845369338989 482.5959777832031 1.000052094459534 L 455.6147155761719 1.000052094459534 C 456.7026977539062 3.741447687149048 457.2532043457031 6.638252258300781 457.2532043457031 9.632719039916992 C 457.2532043457031 22.57927513122559 446.7147521972656 33.11205291748047 433.7611999511719 33.11205291748047 C 420.8081970214844 33.11205291748047 410.2702026367188 22.57927513122559 410.2702026367188 9.632719039916992 C 410.2702026367188 6.639739036560059 410.8208923339844 3.742722988128662 411.9091186523438 1.000052094459534 L 384.9278259277344 1.000052094459534 C 386.0158081054688 3.741447687149048 386.5663146972656 6.638252258300781 386.5663146972656 9.632719039916992 C 386.5663146972656 22.57927513122559 376.0278625488281 33.11205291748047 363.0743103027344 33.11205291748047 C 350.1213073730469 33.11205291748047 339.5833129882812 22.57927513122559 339.5833129882812 9.632719039916992 C 339.5833129882812 6.639618873596191 340.1338500976562 3.742964029312134 341.2222595214844 1.000052094459534 L 314.2405700683594 1.000052094459534 C 315.3281860351562 3.74186110496521 315.87841796875 6.638510227203369 315.87841796875 9.632719039916992 C 315.87841796875 22.57927513122559 305.3404235839844 33.11205291748047 292.3874206542969 33.11205291748047 C 279.4344177246094 33.11205291748047 268.8964233398438 22.57927513122559 268.8964233398438 9.632719039916992 C 268.8964233398438 6.639618873596191 269.4469604492188 3.742964029312134 270.5353698730469 1.000052094459534 L 243.5536346435547 1.000052094459534 C 244.6412506103516 3.741511821746826 245.1916351318359 6.638441562652588 245.1916351318359 9.632719039916992 C 245.1916351318359 22.57927513122559 234.6536407470703 33.11205291748047 221.7006378173828 33.11205291748047 C 208.7470855712891 33.11205291748047 198.2086334228516 22.57927513122559 198.2086334228516 9.632719039916992 C 198.2086334228516 6.639739036560059 198.7594146728516 3.742722988128662 199.8476715087891 1.000052094459534 L 172.8665618896484 1.000052094459534 C 173.9542694091797 3.742344856262207 174.5047454833984 6.639360904693604 174.5047454833984 9.632719039916992 C 174.5047454833984 22.57927513122559 163.9667510986328 33.11205291748047 151.0137481689453 33.11205291748047 C 138.060302734375 33.11205291748047 127.5219650268555 22.57927513122559 127.5219650268555 9.632719039916992 C 127.5219650268555 6.639549732208252 128.0726165771484 3.74254584312439 129.1607818603516 1.000052094459534 L 102.1796569824219 1.000052094459534 C 103.2675628662109 3.742214441299438 103.8179702758789 6.639077186584473 103.8179702758789 9.632719039916992 C 103.8179702758789 22.57927513122559 93.27952575683594 33.11205291748047 80.32608032226562 33.11205291748047 C 67.37307739257812 33.11205291748047 56.83507919311523 22.57927513122559 56.83507919311523 9.632719039916992 C 56.83507919311523 6.639455318450928 57.3857307434082 3.742524147033691 58.47381973266602 1.000052094459534 L 25.04430198669434 1.000052094459534 C 21.79852485656738 1.000052094459534 18.64963531494141 1.635718822479248 15.68530178070068 2.88927435874939 C 12.82107925415039 4.101385593414307 10.24996852874756 5.835385322570801 8.04296875 8.043163299560547 C 5.83485746383667 10.25038528442383 4.100968360900879 12.8218297958374 2.889412879943848 15.68594074249268 C 1.635857224464417 18.64949607849121 1.000190615653992 21.79838562011719 1.000190615653992 25.04527473449707 L 1.000190615653992 642.8634033203125 C 3.743260383605957 641.7757568359375 6.642120361328125 641.2255249023438 9.639190673828125 641.2255249023438 C 22.59218978881836 641.2255249023438 33.13019180297852 651.7579345703125 33.13019180297852 664.7040405273438 C 33.13019180297852 677.6495971679688 22.59218978881836 688.1815795898438 9.639190673828125 688.1815795898438 C 6.64249849319458 688.1815795898438 3.743501663208008 687.6312866210938 1.000190615653992 686.5436401367188 L 1.000190615653992 867.6495971679688 C 1.000190615653992 870.8955078125 1.635857224464417 874.0443725585938 2.889301776885986 877.0087280273438 C 4.101190567016602 879.8724975585938 5.835190773010254 882.443603515625 8.043190956115723 884.6509399414062 C 10.24996852874756 886.8585815429688 12.82107925415039 888.5924682617188 15.68496799468994 889.8046264648438 C 18.64807891845703 891.0576171875 21.79696846008301 891.6929321289062 25.04430198669434 891.6929321289062 L 701.1045532226562 891.6929321289062 M 701.1045532226562 892.6929321289062 L 25.04430198669434 892.6929321289062 C 21.66241264343262 892.6929321289062 18.38252449035645 892.0310668945312 15.29552364349365 890.7255859375 C 12.31230163574219 889.4630737304688 9.634190559387207 887.6570434570312 7.335968494415283 885.3579711914062 C 5.036857128143311 883.0596313476562 3.230857372283936 880.3817138671875 1.968412756919861 877.3983764648438 C 0.6624128222465515 874.31005859375 0.00019059244368691 871.0301513671875 0.00019059244368691 867.6495971679688 L 0.00019059244368691 685.0184936523438 C 3.022634983062744 686.4534912109375 6.265190601348877 687.1815795898438 9.639190673828125 687.1815795898438 C 22.04074668884277 687.1815795898438 32.13019180297852 677.09814453125 32.13019180297852 664.7040405273438 C 32.13019180297852 652.3093872070312 22.04074668884277 642.2255249023438 9.639190673828125 642.2255249023438 C 6.266079425811768 642.2255249023438 3.022968292236328 642.9532470703125 0.00019059244368691 644.3887329101562 L 0.00019059244368691 25.04527473449707 C 0.00019059244368691 21.6638298034668 0.6624128222465515 18.38382911682129 1.968412756919861 15.29638576507568 C 3.230523824691772 12.31271839141846 5.036523818969727 9.634496688842773 7.335968494415283 7.335940837860107 C 9.634302139282227 5.036718845367432 12.31241321563721 3.230829954147339 15.29552364349365 1.968385457992554 C 18.38407897949219 0.6622743606567383 21.66396903991699 5.213758777244948e-05 25.04430198669434 5.213758777244948e-05 L 59.99941253662109 5.213758777244948e-05 C 58.56352233886719 3.022385358810425 57.83507919311523 6.262829780578613 57.83507919311523 9.632719039916992 C 57.83507919311523 22.02783012390137 67.92452239990234 32.11205291748047 80.32608032226562 32.11205291748047 C 92.72808074951172 32.11205291748047 102.8179702758789 22.02783012390137 102.8179702758789 9.632719039916992 C 102.8179702758789 6.26338529586792 102.0899658203125 3.022496700286865 100.6540832519531 5.213758777244948e-05 L 130.6864166259766 5.213758777244948e-05 C 129.2505187988281 3.022274255752563 128.52197265625 6.262718677520752 128.52197265625 9.632719039916992 C 128.52197265625 22.02783012390137 138.6116333007812 32.11205291748047 151.0137481689453 32.11205291748047 C 163.4152984619141 32.11205291748047 173.5047454833984 22.02783012390137 173.5047454833984 9.632719039916992 C 173.5047454833984 6.263496398925781 172.7767486572266 3.022607803344727 171.3410797119141 5.213758777244948e-05 L 201.3733062744141 5.213758777244948e-05 C 199.9373016357422 3.022496700286865 199.2086334228516 6.262829780578613 199.2086334228516 9.632719039916992 C 199.2086334228516 22.02783012390137 209.2985229492188 32.11205291748047 221.7006378173828 32.11205291748047 C 234.1021881103516 32.11205291748047 244.1916351318359 22.02783012390137 244.1916351318359 9.632719039916992 C 244.1916351318359 6.262496471405029 243.4637451171875 3.021607637405396 242.0279693603516 5.213758777244948e-05 L 272.0609741210938 5.213758777244948e-05 C 270.6250915527344 3.022496700286865 269.8964233398438 6.262940883636475 269.8964233398438 9.632719039916992 C 269.8964233398438 22.02783012390137 279.9858703613281 32.11205291748047 292.3874206542969 32.11205291748047 C 304.7890930175781 32.11205291748047 314.87841796875 22.02783012390137 314.87841796875 9.632719039916992 C 314.87841796875 6.262607574462891 314.1505126953125 3.021718740463257 312.715087890625 5.213758777244948e-05 L 342.7478637695312 5.213758777244948e-05 C 341.3119812011719 3.022496700286865 340.5833129882812 6.262940883636475 340.5833129882812 9.632719039916992 C 340.5833129882812 22.02783012390137 350.6727600097656 32.11205291748047 363.0743103027344 32.11205291748047 C 375.4765319824219 32.11205291748047 385.5663146972656 22.02783012390137 385.5663146972656 9.632719039916992 C 385.5663146972656 6.261829853057861 384.8379821777344 3.020941019058228 383.4019775390625 5.213758777244948e-05 L 413.4347534179688 5.213758777244948e-05 C 411.9988708496094 3.022385358810425 411.2702026367188 6.262718677520752 411.2702026367188 9.632719039916992 C 411.2702026367188 22.02783012390137 421.3596496582031 32.11205291748047 433.7611999511719 32.11205291748047 C 446.1634216308594 32.11205291748047 456.2532043457031 22.02783012390137 456.2532043457031 9.632719039916992 C 456.2532043457031 6.261829853057861 455.5248718261719 3.020941019058228 454.0888671875 5.213758777244948e-05 L 484.1218566894531 5.213758777244948e-05 C 482.6857604980469 3.021274328231812 481.9570922851562 6.26171875 481.9570922851562 9.632719039916992 C 481.9570922851562 22.02783012390137 492.0470886230469 32.11205291748047 504.4493103027344 32.11205291748047 C 516.8507690429688 32.11205291748047 526.9400634765625 22.02783012390137 526.9400634765625 9.632719039916992 C 526.9400634765625 6.262940883636475 526.2119750976562 3.022052049636841 524.775634765625 5.213758777244948e-05 L 554.8086547851562 5.213758777244948e-05 C 553.3724975585938 3.022385358810425 552.6441040039062 6.262718677520752 552.6441040039062 9.632719039916992 C 552.6441040039062 22.02783012390137 562.73388671875 32.11205291748047 575.1361083984375 32.11205291748047 C 587.5376586914062 32.11205291748047 597.6270751953125 22.02783012390137 597.6270751953125 9.632719039916992 C 597.6270751953125 6.262385368347168 596.8991088867188 3.021496534347534 595.4634399414062 5.213758777244948e-05 L 625.4965209960938 5.213758777244948e-05 C 624.060546875 3.022496700286865 623.3319702148438 6.262829780578613 623.3319702148438 9.632719039916992 C 623.3319702148438 22.02783012390137 633.4213256835938 32.11205291748047 645.822998046875 32.11205291748047 C 658.2245483398438 32.11205291748047 668.31396484375 22.02783012390137 668.31396484375 9.632719039916992 C 668.31396484375 6.262385368347168 667.5859985351562 3.021496534347534 666.1503295898438 5.213758777244948e-05 L 701.1045532226562 5.213758777244948e-05 C 704.4849853515625 5.213758777244948e-05 707.7648315429688 0.6622743606567383 710.853515625 1.968385457992554 C 713.83642578125 3.230718851089478 716.5146484375 5.03660774230957 718.81396484375 7.335940837860107 C 721.1148681640625 9.637052536010742 722.92041015625 12.31538581848145 724.1806640625 15.29638576507568 C 725.4866333007812 18.3819408416748 726.1488647460938 21.66194152832031 726.1488647460938 25.04527473449707 L 726.1488647460938 644.3887329101562 C 723.1266479492188 642.95361328125 719.8840942382812 642.2255249023438 716.5098876953125 642.2255249023438 C 704.1082153320312 642.2255249023438 694.0188598632812 652.3093872070312 694.0188598632812 664.7040405273438 C 694.0188598632812 677.09814453125 704.1082153320312 687.1815795898438 716.5098876953125 687.1815795898438 C 719.8826293945312 687.1815795898438 723.1256103515625 686.453857421875 726.1489868164062 685.0184936523438 L 726.1488647460938 867.6495971679688 C 726.1488647460938 871.0320434570312 725.4866333007812 874.3119506835938 724.1806640625 877.3983764648438 C 722.9189453125 880.3812866210938 721.113525390625 883.0592651367188 718.81396484375 885.3579711914062 C 716.5142822265625 887.657470703125 713.8360595703125 889.4635009765625 710.853515625 890.7255859375 C 707.7665405273438 892.0310668945312 704.4863891601562 892.6929321289062 701.1045532226562 892.6929321289062 Z" stroke="none" fill="rgba(239,240,246,0.1)"/>
    </g>
  </g>
</svg>
