<svg xmlns="http://www.w3.org/2000/svg" width="23" height="20.287" viewBox="0 0 23 20.287">
    <path d="M33.024,25.972a.152.152,0,0,1-.007.3c-.036,0-3.646.306-8.289.306-4.34,0-8.248-.3-8.288-.306a.152.152,0,0,1-.008-.3c.012,0,1.212-.182,3.953-2.034a.157.157,0,0,1,.117-.023,23.977,23.977,0,0,0,4.225.25,27.577,27.577,0,0,0,4.23-.251.154.154,0,0,1,.112.024c2.744,1.851,3.944,2.032,3.955,2.034Zm-8.159,4.364a.211.211,0,0,0-.136-.083.155.155,0,0,0-.136.082c-.019.037-1.932,3.711-3.18,4.8a.153.153,0,0,0,.1.268h6.428a.151.151,0,0,0,.142-.1.153.153,0,0,0-.04-.168c-1.377-1.225-3.16-4.763-3.178-4.8Zm11.351,4.974a.152.152,0,0,1-.139.089H29.545a.153.153,0,0,1-.064-.014c-2.412-1.127-4.238-5.207-4.752-6.459-.513,1.252-2.34,5.332-4.752,6.459a.149.149,0,0,1-.064.014H13.382a.157.157,0,0,1-.139-.089.152.152,0,0,1,.024-.163,8.7,8.7,0,0,0,1.542-3.991,21.733,21.733,0,0,0,.43-4.438.155.155,0,0,1,.069-.139.157.157,0,0,1,.15-.008c.051.021,1.1.423,9.272.423,8.222,0,9.233-.406,9.273-.423a.156.156,0,0,1,.151.013.153.153,0,0,1,.067.135,21.735,21.735,0,0,0,.43,4.438,8.69,8.69,0,0,0,1.542,3.991.15.15,0,0,1,.024.162ZM17.842,31.435a28.528,28.528,0,0,0,.311-4.05L16.7,27.333a28.421,28.421,0,0,1-.306,4.1,9.451,9.451,0,0,1-1.217,3.45h1.444a9.43,9.43,0,0,0,1.217-3.449Zm3.284-4.008H19.678a28.421,28.421,0,0,1-.306,4.1,9.451,9.451,0,0,1-1.217,3.45H19.6a9.453,9.453,0,0,0,1.217-3.45,28.976,28.976,0,0,0,.311-4.1Zm3.076,0H22.754a28.42,28.42,0,0,1-.306,4.1,12.618,12.618,0,0,1-.394,1.63s.591-.93,1.161-1.892a8.528,8.528,0,0,0,.892-1.745,15.465,15.465,0,0,0,.1-2.094Zm3.288,5.751a12.621,12.621,0,0,1-.394-1.63,28.524,28.524,0,0,1-.3-4.1H25.342a15.465,15.465,0,0,0,.1,2.094,8.53,8.53,0,0,0,.892,1.745c.569.963,1.16,1.893,1.16,1.893ZM31.39,35a9.453,9.453,0,0,1-1.217-3.45,28.433,28.433,0,0,1-.306-4.1h-1.45a28.977,28.977,0,0,0,.311,4.1A9.451,9.451,0,0,0,29.945,35Zm2.972-.1a9.453,9.453,0,0,1-1.217-3.45,28.442,28.442,0,0,1-.306-4.1L31.39,27.4a28.529,28.529,0,0,0,.311,4.05,9.451,9.451,0,0,0,1.217,3.45ZM13.423,21.809a3.685,3.685,0,0,0,1.077.156l.7,1.125a.151.151,0,0,0,.13.071h.01a.15.15,0,0,0,.129-.088l.553-1.195c.361-.048.761-.116,1.207-.212l.89.957a.154.154,0,0,0,.112.049.139.139,0,0,0,.038,0,.15.15,0,0,0,.11-.111l.316-1.272c.238-.071.482-.149.739-.235.144-.049.276-.1.412-.144l1,.841a.149.149,0,0,0,.152.025.153.153,0,0,0,.1-.123l.157-1.271c.452-.183.855-.36,1.207-.527l1.106.718a.154.154,0,0,0,.156.007.151.151,0,0,0,.08-.135l0-1.3a7.51,7.51,0,0,0,.779-.531v1.5A10.645,10.645,0,0,1,22.7,21.665a14.6,14.6,0,0,1-2.284,1.395.154.154,0,0,0-.094.139l0,.229a.152.152,0,0,0,.136.152c.019,0,1.927.2,4.271.2a40.523,40.523,0,0,0,4.277-.2.151.151,0,0,0,.135-.15l0-.229a.152.152,0,0,0-.094-.142,14.471,14.471,0,0,1-2.284-1.395,10.543,10.543,0,0,1-1.881-1.559V18.639a7.9,7.9,0,0,0,.737.5l0,1.3a.151.151,0,0,0,.152.152.149.149,0,0,0,.083-.025l1.105-.718c.351.167.755.343,1.207.527l.157,1.271a.152.152,0,0,0,.1.123.149.149,0,0,0,.055.011.148.148,0,0,0,.1-.036l1-.841c.137.048.269.1.413.144.256.086.5.163.739.235l.316,1.272a.148.148,0,0,0,.11.111.139.139,0,0,0,.038,0,.152.152,0,0,0,.112-.049l.89-.957c.446.1.846.166,1.207.212l.553,1.194a.15.15,0,0,0,.129.088h.01a.153.153,0,0,0,.13-.071l.7-1.125a3.684,3.684,0,0,0,1.077-.156.152.152,0,0,0-.108-.285c-.017.007-1.712.612-5.806-.765-3.642-1.225-4.969-2.311-5.2-2.517v-.4h3.266a.153.153,0,0,0,.1-.267l-.793-.7.793-.7a.153.153,0,0,0-.1-.267H24.879v-.125a.355.355,0,1,0-.3,0v2.421c-.012.012-1.213,1.2-5.238,2.554-4.073,1.37-5.789.771-5.807.765a.154.154,0,0,0-.2.089.15.15,0,0,0,.088.194Z" transform="translate(-13.229 -15.113)" fill="#5ac3ba"/>
</svg>