<svg xmlns="http://www.w3.org/2000/svg" xmlns:xlink="http://www.w3.org/1999/xlink" width="26.423" height="37.043" viewBox="0 0 26.423 37.043">
    <defs>
      <linearGradient id="linear-gradient" x1="0.5" x2="0.5" y2="1" gradientUnits="objectBoundingBox">
        <stop offset="0" stop-color="#5ac3ba"/>
        <stop offset="1" stop-color="#378287"/>
      </linearGradient>
    </defs>
    <path id="noun-description-3643854-EFF0F6" d="M43.516,13.405,36.166,6.048a3.09,3.09,0,0,0-2.172-.9H21.047A3.052,3.052,0,0,0,18,8.188V39.153a3.051,3.051,0,0,0,3.038,3.038H41.377a3.052,3.052,0,0,0,3.046-3.048V15.578a3.056,3.056,0,0,0-.908-2.172ZM20.89,31.1A1.207,1.207,0,0,1,22.1,29.891h8.67a1.206,1.206,0,0,1,0,2.413H22.1A1.206,1.206,0,0,1,20.89,31.1Zm19.437-2.922H22.1a1.206,1.206,0,0,1,0-2.413h18.23a1.206,1.206,0,0,1,0,2.413Zm0-4.129H22.1a1.206,1.206,0,1,1,0-2.413h18.23a1.206,1.206,0,0,1,0,2.413Zm0-4.129H22.1a1.206,1.206,0,0,1,0-2.413h18.23a1.206,1.206,0,0,1,0,2.413Z" transform="translate(-18 -5.148)" fill="url(#linear-gradient)"/>
  </svg>
  