<svg xmlns="http://www.w3.org/2000/svg" width="24" height="24" viewBox="0 0 24 24">
    <path d="M31.132,8.332H9.532a1.2,1.2,0,0,0-1.2,1.2v16.8a1.2,1.2,0,0,0,1.2,1.2h5.675l8.123,4.644h0a1.2,1.2,0,0,0,1.8-1.044v-3.6h6a1.2,1.2,0,0,0,1.2-1.2V9.532a1.2,1.2,0,0,0-1.2-1.2Zm-1.2,16.8h-6a1.2,1.2,0,0,0-1.2,1.2v2.736l-6.6-3.78a1.3,1.3,0,0,0-.6-.155h-4.8v-14.4h19.2ZM16.565,15.388a3.456,3.456,0,0,1,3.456-3.456h.623A3.456,3.456,0,0,1,24.1,15.388v.228A3.457,3.457,0,0,1,21.7,18.9a1.044,1.044,0,0,0-.72,1v.432a1.2,1.2,0,1,1-2.4,0V19.9a3.443,3.443,0,0,1,2.4-3.276,1.054,1.054,0,0,0,.72-1.008v-.228a1.043,1.043,0,0,0-1.056-1.055H20.02a1.043,1.043,0,0,0-1.056,1.055,1.2,1.2,0,1,1-2.4,0Zm4.367,8.544a1.2,1.2,0,1,1-.351-.848,1.2,1.2,0,0,1,.351.848Z" transform="translate(-8.332 -8.332)" fill="#5ac3ba"/>
</svg>