<svg xmlns="http://www.w3.org/2000/svg" xmlns:xlink="http://www.w3.org/1999/xlink" width="40.5" height="35.722" viewBox="0 0 40.5 35.722">
    <defs>
      <linearGradient id="linear-gradient" x1="0.5" x2="0.5" y2="1" gradientUnits="objectBoundingBox">
        <stop offset="0" stop-color="#5ac3ba"/>
        <stop offset="1" stop-color="#378287"/>
      </linearGradient>
    </defs>
    <path id="noun-circus-tent-1712462-EFF0F6" d="M48.085,34.234a.268.268,0,0,1-.013.533c-.063,0-6.421.539-14.6.539-7.642,0-14.524-.533-14.594-.539a.268.268,0,0,1-.015-.533c.021,0,2.133-.321,6.96-3.581a.277.277,0,0,1,.206-.04,42.22,42.22,0,0,0,7.44.441,48.561,48.561,0,0,0,7.449-.443.271.271,0,0,1,.2.042c4.831,3.26,6.946,3.579,6.964,3.581ZM33.718,41.918a.371.371,0,0,0-.239-.147.273.273,0,0,0-.239.145c-.034.065-3.4,6.534-5.6,8.447a.269.269,0,0,0,.176.472H39.136a.266.266,0,0,0,.25-.172.269.269,0,0,0-.071-.3c-2.425-2.156-5.565-8.386-5.6-8.449ZM53.7,50.675a.268.268,0,0,1-.245.157l-11.5,0a.27.27,0,0,1-.113-.025c-4.248-1.984-7.463-9.169-8.368-11.374-.9,2.2-4.12,9.389-8.368,11.374a.263.263,0,0,1-.113.025H13.5a.276.276,0,0,1-.245-.157.267.267,0,0,1,.042-.287c.019-.021,1.888-2.209,2.714-7.027a38.268,38.268,0,0,0,.757-7.814.272.272,0,0,1,.122-.245.276.276,0,0,1,.264-.015c.09.038,1.936.745,16.326.745,14.478,0,16.259-.715,16.328-.745a.274.274,0,0,1,.266.023.269.269,0,0,1,.117.237,38.273,38.273,0,0,0,.757,7.814c.826,4.82,2.7,7.006,2.714,7.027a.264.264,0,0,1,.042.285ZM21.352,43.854a50.234,50.234,0,0,0,.547-7.132l-2.551-.092a50.046,50.046,0,0,1-.539,7.222,16.642,16.642,0,0,1-2.144,6.075h2.542a16.605,16.605,0,0,0,2.144-6.073ZM27.136,36.8H24.585a50.046,50.046,0,0,1-.539,7.222A16.643,16.643,0,0,1,21.9,50.094h2.542a16.645,16.645,0,0,0,2.144-6.075,51.023,51.023,0,0,0,.547-7.222Zm5.416,0H30a50.045,50.045,0,0,1-.539,7.222,22.219,22.219,0,0,1-.694,2.87s1.04-1.638,2.045-3.331a15.017,15.017,0,0,0,1.571-3.073,27.233,27.233,0,0,0,.168-3.688Zm5.789,10.127a22.223,22.223,0,0,1-.694-2.87,50.227,50.227,0,0,1-.537-7.224H34.559a27.231,27.231,0,0,0,.168,3.688A15.02,15.02,0,0,0,36.3,43.591c1,1.695,2.043,3.333,2.043,3.333Zm6.868,3.205a16.645,16.645,0,0,1-2.144-6.075,50.066,50.066,0,0,1-.539-7.222l-2.553,0a51.025,51.025,0,0,0,.547,7.222,16.642,16.642,0,0,0,2.144,6.075Zm5.234-.168A16.645,16.645,0,0,1,48.3,43.887a50.083,50.083,0,0,1-.539-7.224l-2.551.09a50.235,50.235,0,0,0,.547,7.132A16.643,16.643,0,0,0,47.9,49.96ZM13.57,26.9a6.489,6.489,0,0,0,1.9.275l1.24,1.98a.266.266,0,0,0,.229.126h.017a.265.265,0,0,0,.227-.155l.973-2.1c.636-.084,1.34-.2,2.125-.373l1.567,1.684a.272.272,0,0,0,.2.086.245.245,0,0,0,.067-.008.264.264,0,0,0,.193-.2l.556-2.24c.42-.126.85-.262,1.3-.413.254-.086.487-.17.726-.254l1.754,1.481a.263.263,0,0,0,.269.044.27.27,0,0,0,.17-.216l.277-2.238c.8-.323,1.506-.633,2.125-.927l1.947,1.265a.271.271,0,0,0,.275.013.266.266,0,0,0,.141-.237l0-2.295a13.224,13.224,0,0,0,1.372-.936v2.647a18.745,18.745,0,0,1-3.3,2.737,25.7,25.7,0,0,1-4.021,2.456.271.271,0,0,0-.166.245l0,.4a.267.267,0,0,0,.239.269c.034,0,3.394.357,7.52.357A71.356,71.356,0,0,0,41,30.023a.266.266,0,0,0,.237-.264l0-.4a.267.267,0,0,0-.166-.25,25.482,25.482,0,0,1-4.021-2.456A18.565,18.565,0,0,1,33.743,23.9l0-2.582a13.9,13.9,0,0,0,1.3.877l0,2.295a.266.266,0,0,0,.269.268.262.262,0,0,0,.147-.044L37.4,23.453c.619.294,1.33.6,2.125.927l.277,2.238a.267.267,0,0,0,.17.216.263.263,0,0,0,.1.019.26.26,0,0,0,.172-.063L42,25.31c.241.084.474.168.728.254.451.151.883.287,1.3.413l.556,2.24a.261.261,0,0,0,.193.2.245.245,0,0,0,.067.008.267.267,0,0,0,.2-.086L46.6,26.65c.785.172,1.489.292,2.125.373l.973,2.1a.265.265,0,0,0,.227.155h.017a.269.269,0,0,0,.229-.126l1.24-1.98a6.487,6.487,0,0,0,1.9-.275.268.268,0,1,0-.191-.5c-.029.013-3.014,1.078-10.224-1.347-6.412-2.156-8.749-4.069-9.152-4.432v-.7h5.752a.269.269,0,0,0,.178-.47l-1.4-1.231,1.4-1.231a.269.269,0,0,0-.178-.47H33.743l0-.22a.625.625,0,1,0-.537,0v4.262c-.021.021-2.135,2.112-9.224,4.5C16.813,27.471,13.79,26.415,13.758,26.4a.271.271,0,0,0-.344.157.265.265,0,0,0,.155.342Z" transform="translate(-13.229 -15.113)" fill="url(#linear-gradient)"/>
  </svg>
  