<svg xmlns="http://www.w3.org/2000/svg" width="22" height="27.176" viewBox="0 0 22 27.176">
    <path d="M29.464,19.191a7.118,7.118,0,1,0,7.118,7.118A7.121,7.121,0,0,0,29.464,19.191Zm0,1.294a5.823,5.823,0,1,1-5.823,5.823A5.826,5.826,0,0,1,29.464,20.485Zm.332,1.387a.642.642,0,0,0-.665,0L25.9,23.813a.645.645,0,0,0-.314.554V28.25a.645.645,0,0,0,.314.554l3.236,1.941a.642.642,0,0,0,.665,0L33.032,28.8a.645.645,0,0,0,.314-.554V24.367a.645.645,0,0,0-.314-.554ZM19.411,7.544h8.111a.647.647,0,0,1,.647.647V17.25a.647.647,0,1,0,1.293,0V8.191A1.942,1.942,0,0,0,27.521,6.25H17.169a2.589,2.589,0,0,0-2.588,2.588v1.941a.647.647,0,0,0,.647.647h3.236V21.777a2.589,2.589,0,0,0,2.588,2.588.647.647,0,1,0,0-1.293,1.3,1.3,0,0,1-1.294-1.294V8.836a2.575,2.575,0,0,0-.347-1.294ZM21.7,17.25a.647.647,0,1,0,.647.647A.647.647,0,0,0,21.7,17.25Zm1.941,1.294h2.588a.647.647,0,0,0,0-1.293H23.64a.647.647,0,1,0,0,1.293ZM21.7,15.956h4.529a.647.647,0,1,0,0-1.293H21.7a.647.647,0,0,0,0,1.293Zm0-2.588h4.529a.647.647,0,0,0,0-1.293H21.7a.647.647,0,0,0,0,1.293Zm4.529-3.882a.647.647,0,1,1-.647.647A.647.647,0,0,1,26.228,9.487Zm-1.941,0H21.7a.647.647,0,0,0,0,1.293h2.588a.647.647,0,0,0,0-1.293Zm-5.823.647H15.876V8.839a1.294,1.294,0,1,1,2.589,0v1.294Z" transform="translate(-14.581 -6.25)" fill="#5ac2b9" fill-rule="evenodd"/>
</svg>
  