<svg xmlns="http://www.w3.org/2000/svg" width="20.312" height="22.629" viewBox="0 0 20.312 22.629">
  <g id="TURKEY_GROUP" data-name="TURKEY GROUP" transform="translate(6737.606 20558.492)">
    <g id="Turkey_Circus_Concept_Export_q-_1_" transform="translate(-6737.606 -20558.492)">
      <path id="Path_108344" data-name="Path 108344" d="M354.47-985.683a4.442,4.442,0,0,0-2.53,1.152,1.874,1.874,0,0,0-.511.8,8.742,8.742,0,0,0-.43,2.914,30.848,30.848,0,0,0,2.237,10c.231.628.247.638.488.28a4.82,4.82,0,0,1,.709-.834,10.521,10.521,0,0,1,2.184-1.536c1.353-.788,1.808-1.152,2.069-1.652a1.8,1.8,0,0,0-.01-1.581c-.043-.1-.086-.2-.094-.221s-.005-.031.018-.015a4.034,4.034,0,0,1,.391.857c.267.933-.091,1.592-1.243,2.288-.125.076-.44.257-.7.4a7.475,7.475,0,0,0-2.189,1.569,1.586,1.586,0,0,0-.285,1.525,3.65,3.65,0,0,1,.069.834,1.881,1.881,0,0,1-.066.7,4.553,4.553,0,0,1-.475,1.078,4.58,4.58,0,0,0-.661,1.861,1.911,1.911,0,0,0,1.5,2.148,1.923,1.923,0,0,0,.6.058,2.124,2.124,0,0,0,1.106-.244,1.459,1.459,0,0,0,.5-.364,1.6,1.6,0,0,0,.338-.437,2.527,2.527,0,0,0,0-2.085,7.9,7.9,0,0,0-.671-1.3,8.191,8.191,0,0,1-.7-1.4,1.522,1.522,0,0,1-.094-.539,1.136,1.136,0,0,1,.053-.508,3.157,3.157,0,0,1,1.416-1.5,17.1,17.1,0,0,1,1.617-.91,6.752,6.752,0,0,0,1.7-1.119,3.423,3.423,0,0,0,.753-.976,2.828,2.828,0,0,0-.539-3.247l-.15-.173.053-.323a15.855,15.855,0,0,0,.224-3.2,4.255,4.255,0,0,0-.389-1.874,3.51,3.51,0,0,0-3.048-1.843l-.3-.015.018.229c.056.735.069,1,.094,1.889.013.539.02,1.309.01,1.716-.02,1.1-.064,2.507-.076,2.6-.01.064-.046.1-.211.2a3.348,3.348,0,0,0-.409.328l-.211.2.015-.356c.089-1.912.081-5.006-.013-5.807a1.583,1.583,0,0,0-1.256-1.5A3.582,3.582,0,0,0,354.47-985.683Zm4.091,9.963a1.184,1.184,0,0,1-.064.524,2.07,2.07,0,0,1-.412.676,1.535,1.535,0,0,1-1.719.5,1.173,1.173,0,0,1-.409-.364c-.025-.046,0-.038.117.048a1.7,1.7,0,0,0,2.367-1.1,1.24,1.24,0,0,0,.066-.465c0-.191.01-.249.03-.216A1.749,1.749,0,0,1,358.561-975.72Z" transform="translate(-345.651 985.691)" fill="#95dbd5"/>
      <path id="Path_108345" data-name="Path 108345" d="M190.786-906.818a3.056,3.056,0,0,0-.735.3,4.93,4.93,0,0,0-2.57,3.173,4.152,4.152,0,0,0,.038,1.65c.427,2.525,2.2,5.947,5.046,9.717.5.656.986,1.271,1.014,1.271a.251.251,0,0,0,.081-.046,2.969,2.969,0,0,1,.569-.308c.112-.046.211-.089.221-.094a1.272,1.272,0,0,0-.109-.3,39.522,39.522,0,0,1-3.491-11.446,10.071,10.071,0,0,1,.2-3.923C191.076-906.894,191.063-906.894,190.786-906.818Z" transform="translate(-186.225 908.879)" fill="#95dbd5"/>
      <path id="Path_108346" data-name="Path 108346" d="M671.509-684.384a.264.264,0,0,0-.018.12,8.392,8.392,0,0,1-.216,1.2c-.666,2.593-2.718,5.969-5.8,9.536l-.076.089.058.142c.031.079.071.14.086.135.086-.023,1.353-.854,1.869-1.228a14.729,14.729,0,0,0,3.976-4.024,7.06,7.06,0,0,0,.92-2.354,6.5,6.5,0,0,0,0-1.762,5.434,5.434,0,0,0-.336-1.088A2.371,2.371,0,0,0,671.509-684.384Z" transform="translate(-652.058 692.047)" fill="#95dbd5"/>
      <path id="Path_108347" data-name="Path 108347" d="M140.972-683.825a4.169,4.169,0,0,0-.313.969,3.274,3.274,0,0,0-.069.915,4.446,4.446,0,0,0,.13,1.3c.529,2.42,2.57,5.016,5.911,7.507.422.313.753.552.768.552a.417.417,0,0,0,.028-.117,1.155,1.155,0,0,1,.112-.3l.1-.183-.315-.392c-1.769-2.189-2.288-2.868-3.043-3.984a23.989,23.989,0,0,1-3.043-6.025,2.684,2.684,0,0,0-.155-.412A.689.689,0,0,0,140.972-683.825Z" transform="translate(-140.59 691.67)" fill="#95dbd5"/>
      <path id="Path_108348" data-name="Path 108348" d="M3.07.05a2.5,2.5,0,0,1,.615.259A4.261,4.261,0,0,1,5.836,3.068,3.75,3.75,0,0,1,5.8,4.5c-.357,2.2-1.845,5.171-4.224,8.45-.415.57-.826,1.105-.849,1.105a.207.207,0,0,1-.068-.04,2.46,2.46,0,0,0-.477-.268C.093,13.712.01,13.674,0,13.67a1.137,1.137,0,0,1,.092-.259C.844,11.664,1.915,10.258,2.561,8.8a2.422,2.422,0,0,1,.249-.354A1.525,1.525,0,0,0,3.12,7.9a5.756,5.756,0,0,0,.189-.642,2.618,2.618,0,0,0-.547-2.071c.114-.6.2-1.18.252-1.727A9.09,9.09,0,0,0,2.844.046C2.827-.016,2.838-.016,3.07.05Z" transform="matrix(0.999, 0.035, -0.035, 0.999, 13.117, 3.336)" fill="#95dbd5"/>
    </g>
  </g>
</svg>
