<svg xmlns="http://www.w3.org/2000/svg" width="19.749" height="20.397" viewBox="0 0 19.749 20.397">
    <g transform="translate(2214.568 17354.778)">
      <path d="M354.128-985.684a4,4,0,0,0-2.28,1.038,1.69,1.69,0,0,0-.461.72A7.879,7.879,0,0,0,351-981.3a27.8,27.8,0,0,0,2.017,9.013c.209.566.222.575.44.252a4.343,4.343,0,0,1,.639-.751,9.483,9.483,0,0,1,1.968-1.384c1.219-.71,1.629-1.038,1.865-1.489a1.619,1.619,0,0,0-.009-1.425c-.039-.092-.078-.181-.085-.2s0-.028.016-.014a3.637,3.637,0,0,1,.353.772c.241.841-.082,1.434-1.121,2.063-.112.069-.4.231-.63.362a6.733,6.733,0,0,0-1.973,1.414,1.429,1.429,0,0,0-.257,1.375,3.291,3.291,0,0,1,.062.751,1.7,1.7,0,0,1-.06.63,4.1,4.1,0,0,1-.429.972,4.128,4.128,0,0,0-.6,1.677,1.722,1.722,0,0,0,1.35,1.936,1.728,1.728,0,0,0,.539.053,1.916,1.916,0,0,0,1-.22,1.314,1.314,0,0,0,.449-.328,1.441,1.441,0,0,0,.3-.394,2.277,2.277,0,0,0,0-1.879,7.111,7.111,0,0,0-.6-1.176,7.38,7.38,0,0,1-.632-1.26,1.372,1.372,0,0,1-.085-.486,1.024,1.024,0,0,1,.048-.458,2.845,2.845,0,0,1,1.276-1.354,15.345,15.345,0,0,1,1.457-.82,6.086,6.086,0,0,0,1.531-1.008,3.086,3.086,0,0,0,.678-.88,2.549,2.549,0,0,0-.486-2.926l-.135-.156.048-.291a14.287,14.287,0,0,0,.2-2.883,3.836,3.836,0,0,0-.351-1.689,3.163,3.163,0,0,0-2.748-1.661l-.273-.014.016.206c.05.662.062.9.085,1.7.012.486.018,1.18.009,1.547-.018.992-.057,2.259-.069,2.34-.009.057-.041.089-.19.183a3.02,3.02,0,0,0-.369.3l-.19.183.014-.321c.08-1.723.073-4.512-.011-5.234a1.427,1.427,0,0,0-1.132-1.354A3.215,3.215,0,0,0,354.128-985.684Zm3.687,8.98a1.066,1.066,0,0,1-.057.472,1.866,1.866,0,0,1-.371.61,1.384,1.384,0,0,1-1.549.449,1.058,1.058,0,0,1-.369-.328c-.023-.041,0-.034.105.044a1.531,1.531,0,0,0,2.133-.995,1.119,1.119,0,0,0,.06-.42c0-.172.009-.224.027-.195A1.57,1.57,0,0,1,357.815-976.7Z" transform="translate(-2560.14 -16369.087)" fill="#5ac3ba"/>
      <path d="M190.494-906.823a2.8,2.8,0,0,0-.671.272,4.5,4.5,0,0,0-2.347,2.9,3.792,3.792,0,0,0,.035,1.507c.39,2.305,2.013,5.43,4.609,8.873.453.6.9,1.161.926,1.161a.229.229,0,0,0,.074-.042,2.7,2.7,0,0,1,.52-.281c.1-.042.193-.081.2-.086a1.163,1.163,0,0,0-.1-.272,36.091,36.091,0,0,1-3.188-10.452,9.2,9.2,0,0,1,.186-3.582C190.758-906.892,190.747-906.892,190.494-906.823Z" transform="translate(-2400.398 -16446.268)" fill="#5ac3ba"/>
      <path d="M670.487-684.385a.22.22,0,0,0-.015.1,7,7,0,0,1-.18,1c-.555,2.159-2.263,4.971-4.829,7.941l-.063.074.049.119c.025.066.059.116.072.112.072-.019,1.126-.711,1.556-1.022a12.266,12.266,0,0,0,3.311-3.351,5.878,5.878,0,0,0,.766-1.96,5.4,5.4,0,0,0,0-1.467,4.527,4.527,0,0,0-.279-.906A1.976,1.976,0,0,0,670.487-684.385Z" transform="translate(-2866.023 -16662.027)" fill="#5ac3ba"/>
      <path d="M140.969-683.826a4.135,4.135,0,0,0-.31.961,3.247,3.247,0,0,0-.068.908,4.407,4.407,0,0,0,.129,1.286c.525,2.4,2.55,4.976,5.864,7.448.419.31.747.547.762.547a.412.412,0,0,0,.028-.116,1.15,1.15,0,0,1,.111-.3l.1-.182-.313-.388c-1.755-2.172-2.27-2.845-3.019-3.952a23.8,23.8,0,0,1-3.019-5.978,2.669,2.669,0,0,0-.154-.409A.684.684,0,0,0,140.969-683.826Z" transform="translate(-2355.158 -16664.391)" fill="#5ac3ba"/>
      <path d="M190.637-906.825a2.7,2.7,0,0,1,.645.261,4.332,4.332,0,0,1,2.258,2.788,3.649,3.649,0,0,1-.034,1.45c-.375,2.218-1.937,5.224-4.434,8.537-.436.576-.867,1.117-.891,1.117a.222.222,0,0,1-.071-.04,2.6,2.6,0,0,0-.5-.27c-.1-.04-.185-.078-.194-.083a1.118,1.118,0,0,1,.1-.261,34.72,34.72,0,0,0,3.067-10.056,8.849,8.849,0,0,0-.179-3.447C190.383-906.892,190.394-906.892,190.637-906.825Z" transform="translate(-2389.62 -16444.793)" fill="#5ac3ba"/>
    </g>
</svg>  