<svg xmlns="http://www.w3.org/2000/svg" width="25.366" height="25.013" viewBox="0 0 25.366 25.013">
    <g transform="translate(0.281 0.2)">
      <path d="M44.695,42a4.695,4.695,0,1,0,4.695,4.695A4.708,4.708,0,0,0,44.695,42Zm0,7.824a3.13,3.13,0,1,1,3.13-3.13A3.139,3.139,0,0,1,44.695,49.824Z" transform="translate(-32.293 -33.961)" fill="#5ac3ba" stroke="#63d6cd" stroke-width="0.4"/>
      <path d="M30.135,100.8a10.569,10.569,0,0,0-7.707,3.345l-.528.567,1.135,1.076.528-.567a8.991,8.991,0,0,1,13.145,0l.528.567,1.135-1.076-.528-.567A10.644,10.644,0,0,0,30.135,100.8Z" transform="translate(-17.734 -81.259)" fill="#5ac3ba" stroke="#63d6cd" stroke-width="0.4"/>
      <path d="M97,47.9v1.565a6.544,6.544,0,0,1,4.812,2.093l1.135-1.076A8.139,8.139,0,0,0,97,47.9Z" transform="translate(-78.143 -38.707)" fill="#5ac3ba" stroke="#63d6cd" stroke-width="0.4"/>
      <path d="M85.372,4.636a3.736,3.736,0,1,0-3.736,3.736A3.748,3.748,0,0,0,85.372,4.636Zm-5.907,0a2.171,2.171,0,1,1,2.171,2.171A2.179,2.179,0,0,1,79.465,4.636Z" transform="translate(-62.779 -0.9)" fill="#5ac3ba" stroke="#63d6cd" stroke-width="0.4"/>
      <path d="M6.547,47.9A8.139,8.139,0,0,0,.6,50.482l1.135,1.076a6.512,6.512,0,0,1,4.812-2.093Z" transform="translate(-0.6 -38.707)" fill="#5ac3ba" stroke="#63d6cd" stroke-width="0.4"/>
      <path d="M19.372,4.636a3.736,3.736,0,1,0-3.736,3.736A3.748,3.748,0,0,0,19.372,4.636ZM15.636,6.807a2.171,2.171,0,1,1,2.171-2.171A2.179,2.179,0,0,1,15.636,6.807Z" transform="translate(-9.69 -0.9)" fill="#5ac3ba" stroke="#63d6cd" stroke-width="0.4"/>
    </g>
</svg>  