<svg xmlns="http://www.w3.org/2000/svg" width="21.996" height="22.738" viewBox="0 0 21.996 22.738">
    <path d="M14.509,6.436l1.414-.816V7.252l-1.414.816Zm1.047-1.451-1.414-.817-1.414.816,1.414.817Zm7.961,8.728v4.876h.224a.367.367,0,0,1,.367.367V20.1h.665a.367.367,0,0,1,.367.367v3.466a.367.367,0,0,1-.367.367H3.511a.367.367,0,0,1-.367-.367V20.471a.367.367,0,0,1,.367-.367h.665V18.956a.367.367,0,0,1,.367-.367h.224V13.713H4.542a.367.367,0,0,1-.367-.367V12.2H3.511a.367.367,0,0,1-.367-.367V7.757a.365.365,0,0,1,.19-.321L13.907,1.61a.367.367,0,0,1,.352,0L24.948,7.435a.367.367,0,0,1,.191.322v4.074a.367.367,0,0,1-.367.367h-.665v1.148a.367.367,0,0,1-.367.367ZM11.628,7.463a.365.365,0,0,0,.183.317l2.147,1.24a.364.364,0,0,0,.367,0l2.147-1.24a.367.367,0,0,0,.183-.317V4.984a.365.365,0,0,0-.183-.317l-2.147-1.24a.364.364,0,0,0-.367,0l-2.147,1.24a.367.367,0,0,0-.183.317ZM3.877,20.838v1H24.406v-1Zm5.5-7.492V12.2H8.495v1.148a.367.367,0,0,1-.367.367H7.9v4.876h.224a.367.367,0,0,1,.367.367V20.1H9.38V18.955a.367.367,0,0,1,.367-.367h.224V13.713H9.747A.366.366,0,0,1,9.38,13.346Zm5.2,0V12.2H13.7v1.148a.367.367,0,0,1-.367.367h-.224v4.876h.224a.367.367,0,0,1,.367.367V20.1h.886V18.955a.367.367,0,0,1,.367-.367h.224V13.713h-.224A.366.366,0,0,1,14.585,13.346Zm5.2,0V12.2H18.9v1.148a.367.367,0,0,1-.367.367h-.224v4.876h.224a.367.367,0,0,1,.367.367V20.1h.886V18.955a.367.367,0,0,1,.367-.367h.224V13.713h-.224A.366.366,0,0,1,19.789,13.346Zm4.617-1.881v-1H3.877v1Z" transform="translate(-3.144 -1.565)" fill="#5ac3ba"/>
  </svg>  