<svg xmlns="http://www.w3.org/2000/svg" width="30" height="21.62" viewBox="0 0 30 21.62">
  <path
    id="Foster_Discord"
    d="M26.48,5.282A12.271,12.271,0,0,0,19.274,2.6l-.335.335a17.877,17.877,0,0,1,6.369,3.352A20.878,20.878,0,0,0,17.6,3.773a26.906,26.906,0,0,0-5.2,0h-.5A23.529,23.529,0,0,0,6.034,5.449a9.139,9.139,0,0,1-1.676.67,16.867,16.867,0,0,1,6.7-3.352L10.894,2.6A11.26,11.26,0,0,0,3.687,5.282,32.727,32.727,0,0,0,0,20.2,9.688,9.688,0,0,0,7.877,24.22s1.006-1.173,1.676-2.179a8.384,8.384,0,0,1-4.525-3.017c.168.168.5.335.67.5h.168l.168.168a8.982,8.982,0,0,0,1.844.838,26.054,26.054,0,0,0,3.855,1.341,22.472,22.472,0,0,0,6.7,0A13.547,13.547,0,0,0,22.123,20.7a12.69,12.69,0,0,0,3.017-1.508,7.941,7.941,0,0,1-4.693,3.017l1.676,2.011A9.26,9.26,0,0,0,30,20.2,32.575,32.575,0,0,0,26.48,5.282ZM10.223,17.851a2.854,2.854,0,0,1,0-5.7h.168a2.615,2.615,0,0,1,2.514,2.682V15a2.908,2.908,0,0,1-2.682,2.849Zm9.553,0A2.793,2.793,0,0,1,17.095,15a2.659,2.659,0,0,1,2.514-2.849A2.793,2.793,0,0,1,22.291,15,2.763,2.763,0,0,1,19.777,17.851Z"
    transform="translate(0 -2.6)"
    fill="#95dbd5"
  />
</svg>