<svg xmlns="http://www.w3.org/2000/svg" width="25.862" height="22" viewBox="0 0 25.862 22">
  <defs>
    <linearGradient id="linear-gradient" x1="0.5" x2="0.5" y2="1" gradientUnits="objectBoundingBox">
      <stop offset="0" stop-color="#95dbd5" />
      <stop offset="1" stop-color="#5ac3ba" />
    </linearGradient>
  </defs>
  <path
    id="twitter-alt-2"
    d="M26.845,4.179A1.174,1.174,0,0,0,25.07,3.17a8.79,8.79,0,0,1-2.2.932A6.055,6.055,0,0,0,18.9,2.642a6.149,6.149,0,0,0-6.139,5.95A12.965,12.965,0,0,1,4.758,3.981,1.189,1.189,0,0,0,3.75,3.552a1.173,1.173,0,0,0-.923.588,6.2,6.2,0,0,0-.285,5.6l0,0a1.223,1.223,0,0,0-.582,1.044,3.575,3.575,0,0,0,.031.516A6.094,6.094,0,0,0,3.833,15.2a1.173,1.173,0,0,0-.078.9,6.116,6.116,0,0,0,2.776,3.434,8.772,8.772,0,0,1-4.219.527,1.175,1.175,0,0,0-.781,2.154,15.21,15.21,0,0,0,8.238,2.423,15.028,15.028,0,0,0,14.648-11,15.068,15.068,0,0,0,.629-4.285c0-.077,0-.156,0-.235a6.78,6.78,0,0,0,1.8-4.937ZM22.959,7.954a1.169,1.169,0,0,0-.274.825c.011.194.01.389.01.573a12.72,12.72,0,0,1-.534,3.621A12.556,12.556,0,0,1,9.768,22.29a12.854,12.854,0,0,1-3-.353A11.14,11.14,0,0,0,10.229,20.1,1.176,1.176,0,0,0,9.522,18a3.77,3.77,0,0,1-2.6-1.1q.263-.05.523-.124a1.175,1.175,0,0,0-.094-2.284,3.759,3.759,0,0,1-2.644-2.028,6.227,6.227,0,0,0,.64.054A1.2,1.2,0,0,0,6.5,11.7a1.175,1.175,0,0,0-.471-1.336A3.755,3.755,0,0,1,4.357,7.225c0-.078,0-.156.007-.233a15.293,15.293,0,0,0,9.647,4.089,1.2,1.2,0,0,0,.961-.421,1.176,1.176,0,0,0,.242-1.02,3.71,3.71,0,0,1-.1-.856A3.8,3.8,0,0,1,18.9,4.992a3.742,3.742,0,0,1,2.755,1.2,1.167,1.167,0,0,0,1.082.35,10.9,10.9,0,0,0,1.424-.379A7.852,7.852,0,0,1,22.959,7.954Z"
    transform="translate(-0.991 -2.642)"
    fill="url(#linear-gradient)"
  />
</svg>